<?xml version="1.0" encoding="UTF-8" standalone="no"?>
<!DOCTYPE svg PUBLIC "-//W3C//DTD SVG 1.1//EN"
 "http://www.w3.org/Graphics/SVG/1.1/DTD/svg11.dtd">
<!-- Generated by graphviz version 5.0.0 (20220707.1540)
 -->
<!-- Title: UmlClassDiagram Pages: 1 -->
<svg width="1094pt" height="1273pt"
 viewBox="0.00 0.00 1094.04 1272.60" xmlns="http://www.w3.org/2000/svg" xmlns:xlink="http://www.w3.org/1999/xlink">
<g id="graph0" class="graph" transform="scale(1 1) rotate(0) translate(4 1268.6)">
<title>UmlClassDiagram</title>
<polygon fill="white" stroke="transparent" points="-4,4 -4,-1268.6 1090.04,-1268.6 1090.04,4 -4,4"/>
<!-- 0 -->
<g id="node1" class="node">
<title>0</title>
<polygon fill="#f2f2f2" stroke="black" points="29.87,-0.5 29.87,-763.7 695.29,-763.7 695.29,-0.5 29.87,-0.5"/>
<text text-anchor="middle" x="362.58" y="-747.1" font-family="Times,serif" font-size="14.00">GasContract</text>
<text text-anchor="middle" x="362.58" y="-730.3" font-family="Times,serif" font-size="14.00">src/Gas.sol</text>
<polyline fill="none" stroke="black" points="29.87,-722.1 695.29,-722.1 "/>
<text text-anchor="start" x="37.87" y="-705.5" font-family="Times,serif" font-size="14.00">Public:</text>
<text text-anchor="start" x="37.87" y="-688.7" font-family="Times,serif" font-size="14.00"> &#160;&#160;tradeFlag: uint256</text>
<text text-anchor="start" x="37.87" y="-671.9" font-family="Times,serif" font-size="14.00"> &#160;&#160;basicFlag: uint256</text>
<text text-anchor="start" x="37.87" y="-655.1" font-family="Times,serif" font-size="14.00"> &#160;&#160;dividendFlag: uint256</text>
<text text-anchor="start" x="37.87" y="-638.3" font-family="Times,serif" font-size="14.00"> &#160;&#160;totalSupply: uint256</text>
<text text-anchor="start" x="37.87" y="-621.5" font-family="Times,serif" font-size="14.00"> &#160;&#160;paymentCounter: uint256</text>
<text text-anchor="start" x="37.87" y="-604.7" font-family="Times,serif" font-size="14.00"> &#160;&#160;balances: mapping(address=&gt;uint256)</text>
<text text-anchor="start" x="37.87" y="-587.9" font-family="Times,serif" font-size="14.00"> &#160;&#160;tradePercent: uint256</text>
<text text-anchor="start" x="37.87" y="-571.1" font-family="Times,serif" font-size="14.00"> &#160;&#160;contractOwner: address</text>
<text text-anchor="start" x="37.87" y="-554.3" font-family="Times,serif" font-size="14.00"> &#160;&#160;tradeMode: uint256</text>
<text text-anchor="start" x="37.87" y="-537.5" font-family="Times,serif" font-size="14.00"> &#160;&#160;payments: mapping(address=&gt;Payment[])</text>
<text text-anchor="start" x="37.87" y="-520.7" font-family="Times,serif" font-size="14.00"> &#160;&#160;whitelist: mapping(address=&gt;uint256)</text>
<text text-anchor="start" x="37.87" y="-503.9" font-family="Times,serif" font-size="14.00"> &#160;&#160;administrators: address[5]</text>
<text text-anchor="start" x="37.87" y="-487.1" font-family="Times,serif" font-size="14.00"> &#160;&#160;isReady: bool</text>
<text text-anchor="start" x="37.87" y="-470.3" font-family="Times,serif" font-size="14.00"> &#160;&#160;defaultPayment: PaymentType</text>
<text text-anchor="start" x="37.87" y="-453.5" font-family="Times,serif" font-size="14.00"> &#160;&#160;paymentHistory: History[]</text>
<text text-anchor="start" x="37.87" y="-436.7" font-family="Times,serif" font-size="14.00"> &#160;&#160;wasLastOdd: uint256</text>
<text text-anchor="start" x="37.87" y="-419.9" font-family="Times,serif" font-size="14.00"> &#160;&#160;isOddWhitelistUser: mapping(address=&gt;uint256)</text>
<text text-anchor="start" x="37.87" y="-403.1" font-family="Times,serif" font-size="14.00"> &#160;&#160;whiteListStruct: mapping(address=&gt;ImportantStruct)</text>
<polyline fill="none" stroke="black" points="29.87,-394.9 695.29,-394.9 "/>
<text text-anchor="start" x="37.87" y="-378.3" font-family="Times,serif" font-size="14.00">External:</text>
<text text-anchor="start" x="37.87" y="-361.5" font-family="Times,serif" font-size="14.00"> &#160;&#160;&#160;&lt;&lt;payable&gt;&gt; null()</text>
<text text-anchor="start" x="37.87" y="-344.7" font-family="Times,serif" font-size="14.00"> &#160;&#160;&#160;&lt;&lt;payable&gt;&gt; null()</text>
<text text-anchor="start" x="37.87" y="-327.9" font-family="Times,serif" font-size="14.00">Public:</text>
<text text-anchor="start" x="37.87" y="-311.1" font-family="Times,serif" font-size="14.00"> &#160;&#160;&#160;&lt;&lt;payable&gt;&gt; getPaymentHistory(): (paymentHistory_: History[])</text>
<text text-anchor="start" x="37.87" y="-294.3" font-family="Times,serif" font-size="14.00"> &#160;&#160;&#160;&lt;&lt;event&gt;&gt; AddedToWhitelist(userAddress: address, tier: uint256)</text>
<text text-anchor="start" x="37.87" y="-277.5" font-family="Times,serif" font-size="14.00"> &#160;&#160;&#160;&lt;&lt;event&gt;&gt; supplyChanged(address, uint256)</text>
<text text-anchor="start" x="37.87" y="-260.7" font-family="Times,serif" font-size="14.00"> &#160;&#160;&#160;&lt;&lt;event&gt;&gt; Transfer(recipient: address, amount: uint256)</text>
<text text-anchor="start" x="37.87" y="-243.9" font-family="Times,serif" font-size="14.00"> &#160;&#160;&#160;&lt;&lt;event&gt;&gt; PaymentUpdated(admin: address, ID: uint256, amount: uint256, recipient: string)</text>
<text text-anchor="start" x="37.87" y="-227.1" font-family="Times,serif" font-size="14.00"> &#160;&#160;&#160;&lt;&lt;event&gt;&gt; WhiteListTransfer(address)</text>
<text text-anchor="start" x="37.87" y="-210.3" font-family="Times,serif" font-size="14.00"> &#160;&#160;&#160;&lt;&lt;modifier&gt;&gt; onlyAdminOrOwner()</text>
<text text-anchor="start" x="37.87" y="-193.5" font-family="Times,serif" font-size="14.00"> &#160;&#160;&#160;&lt;&lt;modifier&gt;&gt; checkIfWhiteListed(sender: address)</text>
<text text-anchor="start" x="37.87" y="-176.7" font-family="Times,serif" font-size="14.00"> &#160;&#160;&#160;constructor(_admins: address[], _totalSupply: uint256)</text>
<text text-anchor="start" x="37.87" y="-159.9" font-family="Times,serif" font-size="14.00"> &#160;&#160;&#160;balanceOf(_user: address): (balance_: uint256)</text>
<text text-anchor="start" x="37.87" y="-143.1" font-family="Times,serif" font-size="14.00"> &#160;&#160;&#160;checkForAdmin(_user: address): (admin_: bool)</text>
<text text-anchor="start" x="37.87" y="-126.3" font-family="Times,serif" font-size="14.00"> &#160;&#160;&#160;getTradingMode(): (mode_: bool)</text>
<text text-anchor="start" x="37.87" y="-109.5" font-family="Times,serif" font-size="14.00"> &#160;&#160;&#160;addHistory(_updateAddress: address, _tradeMode: bool): (status_: bool, tradeMode_: bool)</text>
<text text-anchor="start" x="37.87" y="-92.7" font-family="Times,serif" font-size="14.00"> &#160;&#160;&#160;getPayments(_user: address): (payments_: Payment[])</text>
<text text-anchor="start" x="37.87" y="-75.9" font-family="Times,serif" font-size="14.00"> &#160;&#160;&#160;transfer(_recipient: address, _amount: uint256, _name: string): (status_: bool)</text>
<text text-anchor="start" x="37.87" y="-59.1" font-family="Times,serif" font-size="14.00"> &#160;&#160;&#160;updatePayment(_user: address, _ID: uint256, _amount: uint256, _type: PaymentType) &lt;&lt;onlyAdminOrOwner&gt;&gt;</text>
<text text-anchor="start" x="37.87" y="-42.3" font-family="Times,serif" font-size="14.00"> &#160;&#160;&#160;addToWhitelist(_userAddrs: address, _tier: uint256) &lt;&lt;onlyAdminOrOwner&gt;&gt;</text>
<text text-anchor="start" x="37.87" y="-25.5" font-family="Times,serif" font-size="14.00"> &#160;&#160;&#160;whiteTransfer(_recipient: address, _amount: uint256) &lt;&lt;checkIfWhiteListed&gt;&gt;</text>
<text text-anchor="start" x="37.87" y="-8.7" font-family="Times,serif" font-size="14.00"> &#160;&#160;&#160;getPaymentStatus(sender: address): (bool, uint256)</text>
</g>
<!-- 1 -->
<g id="node2" class="node">
<title>1</title>
<polygon fill="#f2f2f2" stroke="black" points="0,-1113.7 0,-1264.1 115.16,-1264.1 115.16,-1113.7 0,-1113.7"/>
<text text-anchor="middle" x="57.58" y="-1247.5" font-family="Times,serif" font-size="14.00">&lt;&lt;Enum&gt;&gt;</text>
<text text-anchor="middle" x="57.58" y="-1230.7" font-family="Times,serif" font-size="14.00">PaymentType</text>
<text text-anchor="middle" x="57.58" y="-1213.9" font-family="Times,serif" font-size="14.00">src/Gas.sol</text>
<polyline fill="none" stroke="black" points="0,-1205.7 115.16,-1205.7 "/>
<text text-anchor="start" x="8" y="-1189.1" font-family="Times,serif" font-size="14.00">Unknown: 0</text>
<text text-anchor="start" x="8" y="-1172.3" font-family="Times,serif" font-size="14.00">BasicPayment: 1</text>
<text text-anchor="start" x="8" y="-1155.5" font-family="Times,serif" font-size="14.00">Refund: 2</text>
<text text-anchor="start" x="8" y="-1138.7" font-family="Times,serif" font-size="14.00">Dividend: 3</text>
<text text-anchor="start" x="8" y="-1121.9" font-family="Times,serif" font-size="14.00">GroupPayment: 4</text>
</g>
<!-- 0&#45;&gt;1 -->
<g id="edge6" class="edge">
<title>0&#45;&gt;1</title>
<path fill="none" stroke="black" d="M90.27,-763.88C85.31,-775.95 80.72,-788.07 76.58,-800.2 42.37,-900.33 39.56,-1023.24 44.59,-1103.47"/>
<polygon fill="black" stroke="black" points="41.1,-1103.78 45.28,-1113.52 48.09,-1103.31 41.1,-1103.78"/>
</g>
<!-- 2 -->
<g id="node3" class="node">
<title>2</title>
<polygon fill="#f2f2f2" stroke="black" points="94.52,-846.7 94.52,-1030.7 272.64,-1030.7 272.64,-846.7 94.52,-846.7"/>
<text text-anchor="middle" x="183.58" y="-1014.1" font-family="Times,serif" font-size="14.00">&lt;&lt;Struct&gt;&gt;</text>
<text text-anchor="middle" x="183.58" y="-997.3" font-family="Times,serif" font-size="14.00">Payment</text>
<text text-anchor="middle" x="183.58" y="-980.5" font-family="Times,serif" font-size="14.00">src/Gas.sol</text>
<polyline fill="none" stroke="black" points="94.52,-972.3 272.64,-972.3 "/>
<text text-anchor="start" x="102.52" y="-955.7" font-family="Times,serif" font-size="14.00">paymentType: PaymentType</text>
<text text-anchor="start" x="102.52" y="-938.9" font-family="Times,serif" font-size="14.00">paymentID: uint256</text>
<text text-anchor="start" x="102.52" y="-922.1" font-family="Times,serif" font-size="14.00">adminUpdated: bool</text>
<text text-anchor="start" x="102.52" y="-905.3" font-family="Times,serif" font-size="14.00">recipientName: string</text>
<text text-anchor="start" x="102.52" y="-888.5" font-family="Times,serif" font-size="14.00">recipient: address</text>
<text text-anchor="start" x="102.52" y="-871.7" font-family="Times,serif" font-size="14.00">admin: address</text>
<text text-anchor="start" x="102.52" y="-854.9" font-family="Times,serif" font-size="14.00">amount: uint256</text>
</g>
<!-- 0&#45;&gt;2 -->
<g id="edge9" class="edge">
<title>0&#45;&gt;2</title>
<path fill="none" stroke="black" stroke-dasharray="5,2" d="M233.41,-763.74C225.19,-789.92 217.52,-814.67 210.78,-836.84"/>
<polygon fill="black" stroke="black" points="207.4,-835.92 207.85,-846.51 214.1,-837.96 207.4,-835.92"/>
</g>
<!-- 3 -->
<g id="node4" class="node">
<title>3</title>
<polygon fill="#f2f2f2" stroke="black" points="291,-880.3 291,-997.1 434.15,-997.1 434.15,-880.3 291,-880.3"/>
<text text-anchor="middle" x="362.58" y="-980.5" font-family="Times,serif" font-size="14.00">&lt;&lt;Struct&gt;&gt;</text>
<text text-anchor="middle" x="362.58" y="-963.7" font-family="Times,serif" font-size="14.00">History</text>
<text text-anchor="middle" x="362.58" y="-946.9" font-family="Times,serif" font-size="14.00">src/Gas.sol</text>
<polyline fill="none" stroke="black" points="291,-938.7 434.15,-938.7 "/>
<text text-anchor="start" x="299" y="-922.1" font-family="Times,serif" font-size="14.00">lastUpdate: uint256</text>
<text text-anchor="start" x="299" y="-905.3" font-family="Times,serif" font-size="14.00">updatedBy: address</text>
<text text-anchor="start" x="299" y="-888.5" font-family="Times,serif" font-size="14.00">blockNumber: uint256</text>
</g>
<!-- 0&#45;&gt;3 -->
<g id="edge7" class="edge">
<title>0&#45;&gt;3</title>
<path fill="none" stroke="black" d="M356.26,-763.74C356.62,-803.98 357.19,-840.84 357.98,-870.16"/>
<polygon fill="black" stroke="black" points="354.48,-870.32 358.26,-880.21 361.48,-870.12 354.48,-870.32"/>
</g>
<!-- 4 -->
<g id="node5" class="node">
<title>4</title>
<polygon fill="#f2f2f2" stroke="black" points="452.22,-855.1 452.22,-1022.3 582.93,-1022.3 582.93,-855.1 452.22,-855.1"/>
<text text-anchor="middle" x="517.58" y="-1005.7" font-family="Times,serif" font-size="14.00">&lt;&lt;Struct&gt;&gt;</text>
<text text-anchor="middle" x="517.58" y="-988.9" font-family="Times,serif" font-size="14.00">ImportantStruct</text>
<text text-anchor="middle" x="517.58" y="-972.1" font-family="Times,serif" font-size="14.00">src/Gas.sol</text>
<polyline fill="none" stroke="black" points="452.22,-963.9 582.93,-963.9 "/>
<text text-anchor="start" x="460.22" y="-947.3" font-family="Times,serif" font-size="14.00">amount: uint256</text>
<text text-anchor="start" x="460.22" y="-930.5" font-family="Times,serif" font-size="14.00">valueA: uint32</text>
<text text-anchor="start" x="460.22" y="-913.7" font-family="Times,serif" font-size="14.00">bigValue: uint256</text>
<text text-anchor="start" x="460.22" y="-896.9" font-family="Times,serif" font-size="14.00">valueB: uint32</text>
<text text-anchor="start" x="460.22" y="-880.1" font-family="Times,serif" font-size="14.00">paymentStatus: bool</text>
<text text-anchor="start" x="460.22" y="-863.3" font-family="Times,serif" font-size="14.00">sender: address</text>
</g>
<!-- 0&#45;&gt;4 -->
<g id="edge8" class="edge">
<title>0&#45;&gt;4</title>
<path fill="none" stroke="black" d="M462.65,-763.74C471.12,-793.15 479.21,-820.74 486.45,-844.91"/>
<polygon fill="black" stroke="black" points="483.17,-846.14 489.4,-854.71 489.87,-844.12 483.17,-846.14"/>
</g>
<!-- 6 -->
<g id="node7" class="node">
<title>6</title>
<polygon fill="#f2f2f2" stroke="black" points="601.11,-800.7 601.11,-1076.7 1086.04,-1076.7 1086.04,-800.7 601.11,-800.7"/>
<text text-anchor="middle" x="843.58" y="-1060.1" font-family="Times,serif" font-size="14.00">&lt;&lt;Abstract&gt;&gt;</text>
<text text-anchor="middle" x="843.58" y="-1043.3" font-family="Times,serif" font-size="14.00">Ownable</text>
<text text-anchor="middle" x="843.58" y="-1026.5" font-family="Times,serif" font-size="14.00">src/Ownable.sol</text>
<polyline fill="none" stroke="black" points="601.11,-1018.3 1086.04,-1018.3 "/>
<text text-anchor="start" x="609.11" y="-1001.7" font-family="Times,serif" font-size="14.00">Private:</text>
<text text-anchor="start" x="609.11" y="-984.9" font-family="Times,serif" font-size="14.00"> &#160;&#160;_owner: address</text>
<polyline fill="none" stroke="black" points="601.11,-976.7 1086.04,-976.7 "/>
<text text-anchor="start" x="609.11" y="-960.1" font-family="Times,serif" font-size="14.00">Internal:</text>
<text text-anchor="start" x="609.11" y="-943.3" font-family="Times,serif" font-size="14.00"> &#160;&#160;&#160;_checkOwner()</text>
<text text-anchor="start" x="609.11" y="-926.5" font-family="Times,serif" font-size="14.00"> &#160;&#160;&#160;_transferOwnership(newOwner: address)</text>
<text text-anchor="start" x="609.11" y="-909.7" font-family="Times,serif" font-size="14.00">Public:</text>
<text text-anchor="start" x="609.11" y="-892.9" font-family="Times,serif" font-size="14.00"> &#160;&#160;&#160;&lt;&lt;event&gt;&gt; OwnershipTransferred(previousOwner: address, newOwner: address)</text>
<text text-anchor="start" x="609.11" y="-876.1" font-family="Times,serif" font-size="14.00"> &#160;&#160;&#160;&lt;&lt;modifier&gt;&gt; onlyOwner()</text>
<text text-anchor="start" x="609.11" y="-859.3" font-family="Times,serif" font-size="14.00"> &#160;&#160;&#160;constructor()</text>
<text text-anchor="start" x="609.11" y="-842.5" font-family="Times,serif" font-size="14.00"> &#160;&#160;&#160;owner(): address</text>
<text text-anchor="start" x="609.11" y="-825.7" font-family="Times,serif" font-size="14.00"> &#160;&#160;&#160;renounceOwnership() &lt;&lt;onlyOwner&gt;&gt;</text>
<text text-anchor="start" x="609.11" y="-808.9" font-family="Times,serif" font-size="14.00"> &#160;&#160;&#160;transferOwnership(newOwner: address) &lt;&lt;onlyOwner&gt;&gt;</text>
</g>
<!-- 0&#45;&gt;6 -->
<g id="edge5" class="edge">
<title>0&#45;&gt;6</title>
<path fill="none" stroke="black" d="M692.71,-763.74C696.82,-768.49 700.9,-773.19 704.93,-777.84"/>
<polygon fill="none" stroke="black" points="697.08,-784.82 724.67,-800.6 712.95,-771.06 697.08,-784.82"/>
</g>
<!-- 1&#45;&gt;0 -->
<g id="edge1" class="edge">
<title>1&#45;&gt;0</title>
<path fill="none" stroke="black" d="M58.59,-1113.52C57.38,-1033.8 58.91,-904.61 94.58,-800.2 97.43,-791.86 100.49,-783.52 103.73,-775.21"/>
<polygon fill="black" stroke="black" points="103.81,-775.02 102.33,-767.96 108.27,-763.88 109.75,-770.94 103.81,-775.02"/>
</g>
<!-- 2&#45;&gt;0 -->
<g id="edge2" class="edge">
<title>2&#45;&gt;0</title>
<path fill="none" stroke="black" d="M218.17,-846.51C225.51,-825.12 233.65,-801 242.21,-775.27"/>
<polygon fill="black" stroke="black" points="242.26,-775.13 240.35,-768.18 246.04,-763.74 247.94,-770.7 242.26,-775.13"/>
</g>
<!-- 2&#45;&gt;1 -->
<g id="edge10" class="edge">
<title>2&#45;&gt;1</title>
<path fill="none" stroke="black" stroke-dasharray="5,2" d="M137.38,-1030.71C125.11,-1054.88 111.92,-1080.85 99.87,-1104.59"/>
<polygon fill="black" stroke="black" points="96.72,-1103.06 95.31,-1113.57 102.96,-1106.23 96.72,-1103.06"/>
</g>
<!-- 3&#45;&gt;0 -->
<g id="edge3" class="edge">
<title>3&#45;&gt;0</title>
<path fill="none" stroke="black" d="M366.89,-880.21C367.75,-852.24 368.37,-815.97 368.78,-775.76"/>
<polygon fill="black" stroke="black" points="368.78,-775.74 364.84,-769.7 368.89,-763.74 372.84,-769.78 368.78,-775.74"/>
</g>
<!-- 4&#45;&gt;0 -->
<g id="edge4" class="edge">
<title>4&#45;&gt;0</title>
<path fill="none" stroke="black" d="M499.36,-854.71C493.38,-831.41 486.24,-804.43 478.42,-775.4"/>
<polygon fill="black" stroke="black" points="478.4,-775.33 472.98,-770.58 475.27,-763.74 480.7,-768.49 478.4,-775.33"/>
</g>
<!-- 5 -->
<g id="node6" class="node">
<title>5</title>
<polygon fill="#f2f2f2" stroke="black" points="764.62,-1130.5 764.62,-1247.3 922.53,-1247.3 922.53,-1130.5 764.62,-1130.5"/>
<text text-anchor="middle" x="843.58" y="-1230.7" font-family="Times,serif" font-size="14.00">&lt;&lt;Abstract&gt;&gt;</text>
<text text-anchor="middle" x="843.58" y="-1213.9" font-family="Times,serif" font-size="14.00">Context</text>
<text text-anchor="middle" x="843.58" y="-1197.1" font-family="Times,serif" font-size="14.00">src/Ownable.sol</text>
<polyline fill="none" stroke="black" points="764.62,-1188.9 922.53,-1188.9 "/>
<text text-anchor="start" x="772.62" y="-1172.3" font-family="Times,serif" font-size="14.00">Internal:</text>
<text text-anchor="start" x="772.62" y="-1155.5" font-family="Times,serif" font-size="14.00"> &#160;&#160;&#160;_msgSender(): address</text>
<text text-anchor="start" x="772.62" y="-1138.7" font-family="Times,serif" font-size="14.00"> &#160;&#160;&#160;_msgData(): bytes</text>
</g>
<!-- 6&#45;&gt;5 -->
<g id="edge11" class="edge">
<title>6&#45;&gt;5</title>
<path fill="none" stroke="black" d="M843.58,-1076.87C843.58,-1084.81 843.58,-1092.69 843.58,-1100.36"/>
<polygon fill="none" stroke="black" points="833.08,-1100.39 843.58,-1130.39 854.08,-1100.39 833.08,-1100.39"/>
</g>
</g>
</svg>
