<?xml version="1.0" encoding="UTF-8" standalone="no"?>
<!DOCTYPE svg PUBLIC "-//W3C//DTD SVG 1.1//EN"
 "http://www.w3.org/Graphics/SVG/1.1/DTD/svg11.dtd">
<!-- Generated by graphviz version 5.0.0 (20220707.1540)
 -->
<!-- Title: UmlClassDiagram Pages: 1 -->
<svg width="1094pt" height="1256pt"
 viewBox="0.00 0.00 1094.04 1255.80" xmlns="http://www.w3.org/2000/svg" xmlns:xlink="http://www.w3.org/1999/xlink">
<g id="graph0" class="graph" transform="scale(1 1) rotate(0) translate(4 1251.8)">
<title>UmlClassDiagram</title>
<polygon fill="white" stroke="transparent" points="-4,4 -4,-1251.8 1090.04,-1251.8 1090.04,4 -4,4"/>
<!-- 0 -->
<g id="node1" class="node">
<title>0</title>
<polygon fill="#f2f2f2" stroke="black" points="29.87,-0.5 29.87,-746.9 695.29,-746.9 695.29,-0.5 29.87,-0.5"/>
<text text-anchor="middle" x="362.58" y="-730.3" font-family="Times,serif" font-size="14.00">GasContract</text>
<text text-anchor="middle" x="362.58" y="-713.5" font-family="Times,serif" font-size="14.00">src/Gas.sol</text>
<polyline fill="none" stroke="black" points="29.87,-705.3 695.29,-705.3 "/>
<text text-anchor="start" x="37.87" y="-688.7" font-family="Times,serif" font-size="14.00">Public:</text>
<text text-anchor="start" x="37.87" y="-671.9" font-family="Times,serif" font-size="14.00"> &#160;&#160;tradeFlag: uint256</text>
<text text-anchor="start" x="37.87" y="-655.1" font-family="Times,serif" font-size="14.00"> &#160;&#160;basicFlag: uint256</text>
<text text-anchor="start" x="37.87" y="-638.3" font-family="Times,serif" font-size="14.00"> &#160;&#160;dividendFlag: uint256</text>
<text text-anchor="start" x="37.87" y="-621.5" font-family="Times,serif" font-size="14.00"> &#160;&#160;totalSupply: uint256</text>
<text text-anchor="start" x="37.87" y="-604.7" font-family="Times,serif" font-size="14.00"> &#160;&#160;paymentCounter: uint256</text>
<text text-anchor="start" x="37.87" y="-587.9" font-family="Times,serif" font-size="14.00"> &#160;&#160;balances: mapping(address=&gt;uint256)</text>
<text text-anchor="start" x="37.87" y="-571.1" font-family="Times,serif" font-size="14.00"> &#160;&#160;tradePercent: uint256</text>
<text text-anchor="start" x="37.87" y="-554.3" font-family="Times,serif" font-size="14.00"> &#160;&#160;contractOwner: address</text>
<text text-anchor="start" x="37.87" y="-537.5" font-family="Times,serif" font-size="14.00"> &#160;&#160;tradeMode: uint256</text>
<text text-anchor="start" x="37.87" y="-520.7" font-family="Times,serif" font-size="14.00"> &#160;&#160;payments: mapping(address=&gt;Payment[])</text>
<text text-anchor="start" x="37.87" y="-503.9" font-family="Times,serif" font-size="14.00"> &#160;&#160;whitelist: mapping(address=&gt;uint256)</text>
<text text-anchor="start" x="37.87" y="-487.1" font-family="Times,serif" font-size="14.00"> &#160;&#160;administrators: address[5]</text>
<text text-anchor="start" x="37.87" y="-470.3" font-family="Times,serif" font-size="14.00"> &#160;&#160;defaultPayment: PaymentType</text>
<text text-anchor="start" x="37.87" y="-453.5" font-family="Times,serif" font-size="14.00"> &#160;&#160;paymentHistory: History[]</text>
<text text-anchor="start" x="37.87" y="-436.7" font-family="Times,serif" font-size="14.00"> &#160;&#160;wasLastOdd: uint256</text>
<text text-anchor="start" x="37.87" y="-419.9" font-family="Times,serif" font-size="14.00"> &#160;&#160;isOddWhitelistUser: mapping(address=&gt;uint256)</text>
<text text-anchor="start" x="37.87" y="-403.1" font-family="Times,serif" font-size="14.00"> &#160;&#160;whiteListStruct: mapping(address=&gt;ImportantStruct)</text>
<polyline fill="none" stroke="black" points="29.87,-394.9 695.29,-394.9 "/>
<text text-anchor="start" x="37.87" y="-378.3" font-family="Times,serif" font-size="14.00">External:</text>
<text text-anchor="start" x="37.87" y="-361.5" font-family="Times,serif" font-size="14.00"> &#160;&#160;&#160;&lt;&lt;payable&gt;&gt; null()</text>
<text text-anchor="start" x="37.87" y="-344.7" font-family="Times,serif" font-size="14.00"> &#160;&#160;&#160;&lt;&lt;payable&gt;&gt; null()</text>
<text text-anchor="start" x="37.87" y="-327.9" font-family="Times,serif" font-size="14.00">Public:</text>
<text text-anchor="start" x="37.87" y="-311.1" font-family="Times,serif" font-size="14.00"> &#160;&#160;&#160;&lt;&lt;payable&gt;&gt; getPaymentHistory(): (paymentHistory_: History[])</text>
<text text-anchor="start" x="37.87" y="-294.3" font-family="Times,serif" font-size="14.00"> &#160;&#160;&#160;&lt;&lt;event&gt;&gt; AddedToWhitelist(userAddress: address, tier: uint256)</text>
<text text-anchor="start" x="37.87" y="-277.5" font-family="Times,serif" font-size="14.00"> &#160;&#160;&#160;&lt;&lt;event&gt;&gt; supplyChanged(address, uint256)</text>
<text text-anchor="start" x="37.87" y="-260.7" font-family="Times,serif" font-size="14.00"> &#160;&#160;&#160;&lt;&lt;event&gt;&gt; Transfer(recipient: address, amount: uint256)</text>
<text text-anchor="start" x="37.87" y="-243.9" font-family="Times,serif" font-size="14.00"> &#160;&#160;&#160;&lt;&lt;event&gt;&gt; PaymentUpdated(admin: address, ID: uint256, amount: uint256, recipient: string)</text>
<text text-anchor="start" x="37.87" y="-227.1" font-family="Times,serif" font-size="14.00"> &#160;&#160;&#160;&lt;&lt;event&gt;&gt; WhiteListTransfer(address)</text>
<text text-anchor="start" x="37.87" y="-210.3" font-family="Times,serif" font-size="14.00"> &#160;&#160;&#160;&lt;&lt;modifier&gt;&gt; onlyAdminOrOwner()</text>
<text text-anchor="start" x="37.87" y="-193.5" font-family="Times,serif" font-size="14.00"> &#160;&#160;&#160;&lt;&lt;modifier&gt;&gt; checkIfWhiteListed(sender: address)</text>
<text text-anchor="start" x="37.87" y="-176.7" font-family="Times,serif" font-size="14.00"> &#160;&#160;&#160;constructor(_admins: address[], _totalSupply: uint256)</text>
<text text-anchor="start" x="37.87" y="-159.9" font-family="Times,serif" font-size="14.00"> &#160;&#160;&#160;balanceOf(_user: address): (balance_: uint256)</text>
<text text-anchor="start" x="37.87" y="-143.1" font-family="Times,serif" font-size="14.00"> &#160;&#160;&#160;checkForAdmin(_user: address): (admin_: bool)</text>
<text text-anchor="start" x="37.87" y="-126.3" font-family="Times,serif" font-size="14.00"> &#160;&#160;&#160;getTradingMode(): (mode_: bool)</text>
<text text-anchor="start" x="37.87" y="-109.5" font-family="Times,serif" font-size="14.00"> &#160;&#160;&#160;addHistory(_updateAddress: address, _tradeMode: bool): (status_: bool, tradeMode_: bool)</text>
<text text-anchor="start" x="37.87" y="-92.7" font-family="Times,serif" font-size="14.00"> &#160;&#160;&#160;getPayments(_user: address): (payments_: Payment[])</text>
<text text-anchor="start" x="37.87" y="-75.9" font-family="Times,serif" font-size="14.00"> &#160;&#160;&#160;transfer(_recipient: address, _amount: uint256, _name: string): (status_: bool)</text>
<text text-anchor="start" x="37.87" y="-59.1" font-family="Times,serif" font-size="14.00"> &#160;&#160;&#160;updatePayment(_user: address, _ID: uint256, _amount: uint256, _type: PaymentType) &lt;&lt;onlyAdminOrOwner&gt;&gt;</text>
<text text-anchor="start" x="37.87" y="-42.3" font-family="Times,serif" font-size="14.00"> &#160;&#160;&#160;addToWhitelist(_userAddrs: address, _tier: uint256) &lt;&lt;onlyAdminOrOwner&gt;&gt;</text>
<text text-anchor="start" x="37.87" y="-25.5" font-family="Times,serif" font-size="14.00"> &#160;&#160;&#160;whiteTransfer(_recipient: address, _amount: uint256) &lt;&lt;checkIfWhiteListed&gt;&gt;</text>
<text text-anchor="start" x="37.87" y="-8.7" font-family="Times,serif" font-size="14.00"> &#160;&#160;&#160;getPaymentStatus(sender: address): (bool, uint256)</text>
</g>
<!-- 1 -->
<g id="node2" class="node">
<title>1</title>
<polygon fill="#f2f2f2" stroke="black" points="0,-1096.9 0,-1247.3 115.16,-1247.3 115.16,-1096.9 0,-1096.9"/>
<text text-anchor="middle" x="57.58" y="-1230.7" font-family="Times,serif" font-size="14.00">&lt;&lt;Enum&gt;&gt;</text>
<text text-anchor="middle" x="57.58" y="-1213.9" font-family="Times,serif" font-size="14.00">PaymentType</text>
<text text-anchor="middle" x="57.58" y="-1197.1" font-family="Times,serif" font-size="14.00">src/Gas.sol</text>
<polyline fill="none" stroke="black" points="0,-1188.9 115.16,-1188.9 "/>
<text text-anchor="start" x="8" y="-1172.3" font-family="Times,serif" font-size="14.00">Unknown: 0</text>
<text text-anchor="start" x="8" y="-1155.5" font-family="Times,serif" font-size="14.00">BasicPayment: 1</text>
<text text-anchor="start" x="8" y="-1138.7" font-family="Times,serif" font-size="14.00">Refund: 2</text>
<text text-anchor="start" x="8" y="-1121.9" font-family="Times,serif" font-size="14.00">Dividend: 3</text>
<text text-anchor="start" x="8" y="-1105.1" font-family="Times,serif" font-size="14.00">GroupPayment: 4</text>
</g>
<!-- 0&#45;&gt;1 -->
<g id="edge6" class="edge">
<title>0&#45;&gt;1</title>
<path fill="none" stroke="black" d="M90.52,-747.06C85.46,-759.13 80.79,-771.25 76.58,-783.4 41.9,-883.37 39.2,-1006.32 44.38,-1086.6"/>
<polygon fill="black" stroke="black" points="40.89,-1086.93 45.09,-1096.66 47.88,-1086.44 40.89,-1086.93"/>
</g>
<!-- 2 -->
<g id="node3" class="node">
<title>2</title>
<polygon fill="#f2f2f2" stroke="black" points="94.52,-829.9 94.52,-1013.9 272.64,-1013.9 272.64,-829.9 94.52,-829.9"/>
<text text-anchor="middle" x="183.58" y="-997.3" font-family="Times,serif" font-size="14.00">&lt;&lt;Struct&gt;&gt;</text>
<text text-anchor="middle" x="183.58" y="-980.5" font-family="Times,serif" font-size="14.00">Payment</text>
<text text-anchor="middle" x="183.58" y="-963.7" font-family="Times,serif" font-size="14.00">src/Gas.sol</text>
<polyline fill="none" stroke="black" points="94.52,-955.5 272.64,-955.5 "/>
<text text-anchor="start" x="102.52" y="-938.9" font-family="Times,serif" font-size="14.00">paymentType: PaymentType</text>
<text text-anchor="start" x="102.52" y="-922.1" font-family="Times,serif" font-size="14.00">paymentID: uint256</text>
<text text-anchor="start" x="102.52" y="-905.3" font-family="Times,serif" font-size="14.00">adminUpdated: bool</text>
<text text-anchor="start" x="102.52" y="-888.5" font-family="Times,serif" font-size="14.00">recipientName: string</text>
<text text-anchor="start" x="102.52" y="-871.7" font-family="Times,serif" font-size="14.00">recipient: address</text>
<text text-anchor="start" x="102.52" y="-854.9" font-family="Times,serif" font-size="14.00">admin: address</text>
<text text-anchor="start" x="102.52" y="-838.1" font-family="Times,serif" font-size="14.00">amount: uint256</text>
</g>
<!-- 0&#45;&gt;2 -->
<g id="edge9" class="edge">
<title>0&#45;&gt;2</title>
<path fill="none" stroke="black" stroke-dasharray="5,2" d="M234.25,-746.95C225.91,-773.07 218.13,-797.78 211.28,-819.94"/>
<polygon fill="black" stroke="black" points="207.91,-819.02 208.31,-829.61 214.6,-821.09 207.91,-819.02"/>
</g>
<!-- 3 -->
<g id="node4" class="node">
<title>3</title>
<polygon fill="#f2f2f2" stroke="black" points="291,-863.5 291,-980.3 434.15,-980.3 434.15,-863.5 291,-863.5"/>
<text text-anchor="middle" x="362.58" y="-963.7" font-family="Times,serif" font-size="14.00">&lt;&lt;Struct&gt;&gt;</text>
<text text-anchor="middle" x="362.58" y="-946.9" font-family="Times,serif" font-size="14.00">History</text>
<text text-anchor="middle" x="362.58" y="-930.1" font-family="Times,serif" font-size="14.00">src/Gas.sol</text>
<polyline fill="none" stroke="black" points="291,-921.9 434.15,-921.9 "/>
<text text-anchor="start" x="299" y="-905.3" font-family="Times,serif" font-size="14.00">lastUpdate: uint256</text>
<text text-anchor="start" x="299" y="-888.5" font-family="Times,serif" font-size="14.00">updatedBy: address</text>
<text text-anchor="start" x="299" y="-871.7" font-family="Times,serif" font-size="14.00">blockNumber: uint256</text>
</g>
<!-- 0&#45;&gt;3 -->
<g id="edge7" class="edge">
<title>0&#45;&gt;3</title>
<path fill="none" stroke="black" d="M356.24,-746.95C356.59,-787.09 357.16,-823.93 357.95,-853.27"/>
<polygon fill="black" stroke="black" points="354.45,-853.43 358.23,-863.32 361.45,-853.23 354.45,-853.43"/>
</g>
<!-- 4 -->
<g id="node5" class="node">
<title>4</title>
<polygon fill="#f2f2f2" stroke="black" points="452.22,-838.3 452.22,-1005.5 582.93,-1005.5 582.93,-838.3 452.22,-838.3"/>
<text text-anchor="middle" x="517.58" y="-988.9" font-family="Times,serif" font-size="14.00">&lt;&lt;Struct&gt;&gt;</text>
<text text-anchor="middle" x="517.58" y="-972.1" font-family="Times,serif" font-size="14.00">ImportantStruct</text>
<text text-anchor="middle" x="517.58" y="-955.3" font-family="Times,serif" font-size="14.00">src/Gas.sol</text>
<polyline fill="none" stroke="black" points="452.22,-947.1 582.93,-947.1 "/>
<text text-anchor="start" x="460.22" y="-930.5" font-family="Times,serif" font-size="14.00">amount: uint256</text>
<text text-anchor="start" x="460.22" y="-913.7" font-family="Times,serif" font-size="14.00">valueA: uint32</text>
<text text-anchor="start" x="460.22" y="-896.9" font-family="Times,serif" font-size="14.00">bigValue: uint256</text>
<text text-anchor="start" x="460.22" y="-880.1" font-family="Times,serif" font-size="14.00">valueB: uint32</text>
<text text-anchor="start" x="460.22" y="-863.3" font-family="Times,serif" font-size="14.00">paymentStatus: bool</text>
<text text-anchor="start" x="460.22" y="-846.5" font-family="Times,serif" font-size="14.00">sender: address</text>
</g>
<!-- 0&#45;&gt;4 -->
<g id="edge8" class="edge">
<title>0&#45;&gt;4</title>
<path fill="none" stroke="black" d="M461.88,-746.95C470.5,-776.45 478.74,-804.16 486.12,-828.43"/>
<polygon fill="black" stroke="black" points="482.85,-829.71 489.12,-838.25 489.55,-827.67 482.85,-829.71"/>
</g>
<!-- 6 -->
<g id="node7" class="node">
<title>6</title>
<polygon fill="#f2f2f2" stroke="black" points="601.11,-783.9 601.11,-1059.9 1086.04,-1059.9 1086.04,-783.9 601.11,-783.9"/>
<text text-anchor="middle" x="843.58" y="-1043.3" font-family="Times,serif" font-size="14.00">&lt;&lt;Abstract&gt;&gt;</text>
<text text-anchor="middle" x="843.58" y="-1026.5" font-family="Times,serif" font-size="14.00">Ownable</text>
<text text-anchor="middle" x="843.58" y="-1009.7" font-family="Times,serif" font-size="14.00">src/Ownable.sol</text>
<polyline fill="none" stroke="black" points="601.11,-1001.5 1086.04,-1001.5 "/>
<text text-anchor="start" x="609.11" y="-984.9" font-family="Times,serif" font-size="14.00">Private:</text>
<text text-anchor="start" x="609.11" y="-968.1" font-family="Times,serif" font-size="14.00"> &#160;&#160;_owner: address</text>
<polyline fill="none" stroke="black" points="601.11,-959.9 1086.04,-959.9 "/>
<text text-anchor="start" x="609.11" y="-943.3" font-family="Times,serif" font-size="14.00">Internal:</text>
<text text-anchor="start" x="609.11" y="-926.5" font-family="Times,serif" font-size="14.00"> &#160;&#160;&#160;_checkOwner()</text>
<text text-anchor="start" x="609.11" y="-909.7" font-family="Times,serif" font-size="14.00"> &#160;&#160;&#160;_transferOwnership(newOwner: address)</text>
<text text-anchor="start" x="609.11" y="-892.9" font-family="Times,serif" font-size="14.00">Public:</text>
<text text-anchor="start" x="609.11" y="-876.1" font-family="Times,serif" font-size="14.00"> &#160;&#160;&#160;&lt;&lt;event&gt;&gt; OwnershipTransferred(previousOwner: address, newOwner: address)</text>
<text text-anchor="start" x="609.11" y="-859.3" font-family="Times,serif" font-size="14.00"> &#160;&#160;&#160;&lt;&lt;modifier&gt;&gt; onlyOwner()</text>
<text text-anchor="start" x="609.11" y="-842.5" font-family="Times,serif" font-size="14.00"> &#160;&#160;&#160;constructor()</text>
<text text-anchor="start" x="609.11" y="-825.7" font-family="Times,serif" font-size="14.00"> &#160;&#160;&#160;owner(): address</text>
<text text-anchor="start" x="609.11" y="-808.9" font-family="Times,serif" font-size="14.00"> &#160;&#160;&#160;renounceOwnership() &lt;&lt;onlyOwner&gt;&gt;</text>
<text text-anchor="start" x="609.11" y="-792.1" font-family="Times,serif" font-size="14.00"> &#160;&#160;&#160;transferOwnership(newOwner: address) &lt;&lt;onlyOwner&gt;&gt;</text>
</g>
<!-- 0&#45;&gt;6 -->
<g id="edge5" class="edge">
<title>0&#45;&gt;6</title>
<path fill="none" stroke="black" d="M690.39,-746.95C694.57,-751.69 698.7,-756.38 702.78,-761.02"/>
<polygon fill="none" stroke="black" points="695.08,-768.16 722.79,-783.74 710.84,-754.28 695.08,-768.16"/>
</g>
<!-- 1&#45;&gt;0 -->
<g id="edge1" class="edge">
<title>1&#45;&gt;0</title>
<path fill="none" stroke="black" d="M58.4,-1096.66C57.03,-1016.88 58.42,-887.64 94.58,-783.4 97.47,-775.05 100.59,-766.71 103.89,-758.39"/>
<polygon fill="black" stroke="black" points="103.98,-758.17 102.55,-751.1 108.52,-747.06 109.95,-754.12 103.98,-758.17"/>
</g>
<!-- 2&#45;&gt;0 -->
<g id="edge2" class="edge">
<title>2&#45;&gt;0</title>
<path fill="none" stroke="black" d="M218.68,-829.61C226.13,-808.23 234.38,-784.13 243.05,-758.45"/>
<polygon fill="black" stroke="black" points="243.09,-758.32 241.21,-751.36 246.92,-746.95 248.8,-753.92 243.09,-758.32"/>
</g>
<!-- 2&#45;&gt;1 -->
<g id="edge10" class="edge">
<title>2&#45;&gt;1</title>
<path fill="none" stroke="black" stroke-dasharray="5,2" d="M137.38,-1013.91C125.11,-1038.08 111.92,-1064.05 99.87,-1087.79"/>
<polygon fill="black" stroke="black" points="96.72,-1086.26 95.31,-1096.77 102.96,-1089.43 96.72,-1086.26"/>
</g>
<!-- 3&#45;&gt;0 -->
<g id="edge3" class="edge">
<title>3&#45;&gt;0</title>
<path fill="none" stroke="black" d="M366.92,-863.32C367.78,-835.39 368.4,-799.22 368.8,-759.2"/>
<polygon fill="black" stroke="black" points="368.8,-758.95 364.86,-752.92 368.92,-746.95 372.86,-752.99 368.8,-758.95"/>
</g>
<!-- 4&#45;&gt;0 -->
<g id="edge4" class="edge">
<title>4&#45;&gt;0</title>
<path fill="none" stroke="black" d="M499.13,-838.25C493.02,-814.87 485.74,-787.77 477.76,-758.65"/>
<polygon fill="black" stroke="black" points="477.73,-758.52 472.28,-753.8 474.55,-746.95 480,-751.68 477.73,-758.52"/>
</g>
<!-- 5 -->
<g id="node6" class="node">
<title>5</title>
<polygon fill="#f2f2f2" stroke="black" points="764.62,-1113.7 764.62,-1230.5 922.53,-1230.5 922.53,-1113.7 764.62,-1113.7"/>
<text text-anchor="middle" x="843.58" y="-1213.9" font-family="Times,serif" font-size="14.00">&lt;&lt;Abstract&gt;&gt;</text>
<text text-anchor="middle" x="843.58" y="-1197.1" font-family="Times,serif" font-size="14.00">Context</text>
<text text-anchor="middle" x="843.58" y="-1180.3" font-family="Times,serif" font-size="14.00">src/Ownable.sol</text>
<polyline fill="none" stroke="black" points="764.62,-1172.1 922.53,-1172.1 "/>
<text text-anchor="start" x="772.62" y="-1155.5" font-family="Times,serif" font-size="14.00">Internal:</text>
<text text-anchor="start" x="772.62" y="-1138.7" font-family="Times,serif" font-size="14.00"> &#160;&#160;&#160;_msgSender(): address</text>
<text text-anchor="start" x="772.62" y="-1121.9" font-family="Times,serif" font-size="14.00"> &#160;&#160;&#160;_msgData(): bytes</text>
</g>
<!-- 6&#45;&gt;5 -->
<g id="edge11" class="edge">
<title>6&#45;&gt;5</title>
<path fill="none" stroke="black" d="M843.58,-1060.07C843.58,-1068.01 843.58,-1075.89 843.58,-1083.56"/>
<polygon fill="none" stroke="black" points="833.08,-1083.59 843.58,-1113.59 854.08,-1083.59 833.08,-1083.59"/>
</g>
</g>
</svg>
